# Blender 4.2.2 LTS
# www.blender.org
o Plane
v 10.022256 9.920103 -9.999997
v 10.022258 -10.079897 -9.999997
v -9.977744 9.920101 -10.000003
v -9.977742 -10.079899 -10.000003
v 10.022256 9.920103 -9.999997
v -9.977744 9.920101 -10.000003
v 10.022256 9.920103 -9.999997
v 10.022258 -10.079897 -9.999997
v -9.977744 9.920101 -10.000003
v -9.977742 -10.079899 -10.000003
vn -0.0000 -0.0000 -1.0000
vt 1.000000 0.000000
vt 0.000000 1.000000
vt 0.000000 0.000000
vt 1.000000 1.000000
s 0
f 2/1/1 3/2/1 1/3/1
f 1/3/1 6/2/1 5/3/1
f 8/1/1 9/2/1 7/3/1
f 2/1/1 4/4/1 3/2/1
f 1/3/1 3/2/1 6/2/1
f 8/1/1 10/4/1 9/2/1
o Plane.001
v -9.977745 9.920101 -9.999999
v -9.977743 9.920101 10.000001
v 10.022255 9.920103 -10.000001
v 10.022257 9.920103 9.999999
vn -0.0000 1.0000 -0.0000
vt 1.000000 0.000000
vt 0.000000 1.000000
vt 0.000000 0.000000
vt 1.000000 1.000000
s 0
f 12/5/2 13/6/2 11/7/2
f 12/5/2 14/8/2 13/6/2
o Cylinder
v 10.022259 -10.079897 -10.000000
v -9.977741 -10.079899 -10.000000
v 10.022259 -6.178091 -9.615705
v -9.977741 -6.178092 -9.615705
v 10.022258 -2.426228 -8.477591
v -9.977742 -2.426229 -8.477591
v 10.022258 1.031507 -6.629393
v -9.977742 1.031506 -6.629393
v 10.022258 4.062239 -4.142136
v -9.977742 4.062237 -4.142136
v 10.022257 6.549495 -1.111404
v -9.977743 6.549495 -1.111404
v 10.022257 8.397693 2.346331
v -9.977743 8.397693 2.346330
v 10.022257 9.535808 6.098194
v -9.977743 9.535808 6.098193
v 10.022256 9.920102 10.000000
v -9.977744 9.920102 10.000000
vn -0.0000 -0.0980 0.9952
vn -0.0000 -0.2903 0.9569
vn -0.0000 -0.4714 0.8819
vn -0.0000 -0.6344 0.7730
vn -0.0000 -0.7730 0.6344
vn -0.0000 -0.8819 0.4714
vn -0.0000 -0.9569 0.2903
vn -0.0000 -0.9952 0.0980
vt 0.468750 0.500000
vt 0.500000 1.000000
vt 0.500000 0.500000
vt 0.437500 0.500000
vt 0.468750 1.000000
vt 0.406250 0.500000
vt 0.437500 1.000000
vt 0.375000 0.500000
vt 0.406250 1.000000
vt 0.343750 0.500000
vt 0.375000 1.000000
vt 0.312500 0.500000
vt 0.343750 1.000000
vt 0.281250 0.500000
vt 0.312500 1.000000
vt 0.250000 0.500000
vt 0.281250 1.000000
vt 0.250000 1.000000
s 0
f 17/9/3 16/10/3 15/11/3
f 19/12/4 18/13/4 17/9/4
f 21/14/5 20/15/5 19/12/5
f 23/16/6 22/17/6 21/14/6
f 25/18/7 24/19/7 23/16/7
f 27/20/8 26/21/8 25/18/8
f 29/22/9 28/23/9 27/20/9
f 31/24/10 30/25/10 29/22/10
f 17/9/3 18/13/3 16/10/3
f 19/12/4 20/15/4 18/13/4
f 21/14/5 22/17/5 20/15/5
f 23/16/6 24/19/6 22/17/6
f 25/18/7 26/21/7 24/19/7
f 27/20/8 28/23/8 26/21/8
f 29/22/9 30/25/9 28/23/9
f 31/24/10 32/26/10 30/25/10
o Plane.002
v -9.977742 9.920101 -10.000000
v -9.977741 -10.079899 -10.000000
v -9.977743 9.920101 10.000000
v -9.977742 9.920101 -10.000000
v -9.977743 9.920101 10.000000
v -9.977742 9.920101 -10.000000
v -9.977741 -10.079899 -10.000000
v -9.977743 9.920101 10.000000
v -9.977743 9.920101 0.000000
v -9.977742 -0.079899 -10.000000
v -9.977743 9.920101 -5.000000
v -9.977741 -5.079899 -10.000000
v -9.977742 4.920101 -10.000000
v -9.977742 9.920101 -7.500000
v -9.977741 -7.579899 -10.000000
v -9.977743 9.920101 2.500000
v -9.977742 2.420101 -10.000000
v -9.977743 9.920101 -2.500000
v -9.977741 -2.579899 -10.000000
v -9.977742 7.420101 -10.000000
vn -1.0000 -0.0000 -0.0000
vt 0.000000 0.000000
vt 0.000000 1.000000
s 0
f 33/27/11 37/28/11 36/27/11
f 42/27/11 41/27/11 38/27/11
f 41/27/11 50/27/11 48/27/11
f 40/27/11 48/27/11 50/27/11
f 33/27/11 35/28/11 37/28/11
l 33 34
l 46 38
l 47 39
l 49 42
l 50 43
l 51 44
l 52 45
l 43 46
l 44 47
l 45 49
l 42 51
l 38 52
