# Blender 4.2.2 LTS
# www.blender.org
o Cylinder
v 10.022259 -10.079897 -9.000000
v -9.977741 -10.079899 -9.000000
v 10.022259 -6.373181 -8.634920
v -9.977741 -6.373182 -8.634920
v 10.022258 -2.808911 -7.553711
v -9.977742 -2.808913 -7.553711
v 10.022258 0.475938 -5.797922
v -9.977742 0.475936 -5.797922
v 10.022258 3.355132 -3.435029
v -9.977742 3.355130 -3.435029
v 10.022257 5.718025 -0.555835
v -9.977743 5.718023 -0.555835
v 10.022257 7.473813 2.729015
v -9.977743 7.473813 2.729014
v 10.022257 8.555022 6.293284
v -9.977743 8.555022 6.293283
v 10.022256 8.920102 10.000000
v -9.977744 8.920102 10.000000
vn -0.0000 -0.0980 0.9952
vn -0.0000 -0.2903 0.9569
vn -0.0000 -0.4714 0.8819
vn -0.0000 -0.6344 0.7730
vn -0.0000 -0.7730 0.6344
vn -0.0000 -0.8819 0.4714
vn -0.0000 -0.9569 0.2903
vn -0.0000 -0.9952 0.0980
vt 0.468750 0.500000
vt 0.500000 1.000000
vt 0.500000 0.500000
vt 0.437500 0.500000
vt 0.468750 1.000000
vt 0.406250 0.500000
vt 0.437500 1.000000
vt 0.375000 0.500000
vt 0.406250 1.000000
vt 0.343750 0.500000
vt 0.375000 1.000000
vt 0.312500 0.500000
vt 0.343750 1.000000
vt 0.281250 0.500000
vt 0.312500 1.000000
vt 0.250000 0.500000
vt 0.281250 1.000000
vt 0.250000 1.000000
s 0
f 3/1/1 2/2/1 1/3/1
f 5/4/2 4/5/2 3/1/2
f 7/6/3 6/7/3 5/4/3
f 9/8/4 8/9/4 7/6/4
f 11/10/5 10/11/5 9/8/5
f 13/12/6 12/13/6 11/10/6
f 15/14/7 14/15/7 13/12/7
f 17/16/8 16/17/8 15/14/8
f 3/1/1 4/5/1 2/2/1
f 5/4/2 6/7/2 4/5/2
f 7/6/3 8/9/3 6/7/3
f 9/8/4 10/11/4 8/9/4
f 11/10/5 12/13/5 10/11/5
f 13/12/6 14/15/6 12/13/6
f 15/14/7 16/17/7 14/15/7
f 17/16/8 18/18/8 16/17/8
o Cube
v -10.000000 9.000000 -10.000000
v -10.000000 9.000000 10.000000
v -10.000000 10.000000 -10.000000
v -10.000000 10.000000 10.000000
v 10.000000 9.000000 -10.000000
v 10.000000 9.000000 10.000000
v 10.000000 10.000000 -10.000000
v 10.000000 10.000000 10.000000
vn -1.0000 -0.0000 -0.0000
vn -0.0000 1.0000 -0.0000
vn 1.0000 -0.0000 -0.0000
vn -0.0000 -1.0000 -0.0000
vn -0.0000 -0.0000 -1.0000
vn -0.0000 -0.0000 1.0000
vt 0.625000 0.000000
vt 0.375000 0.250000
vt 0.375000 0.000000
vt 0.625000 0.250000
vt 0.375000 0.500000
vt 0.625000 0.500000
vt 0.375000 0.750000
vt 0.625000 0.750000
vt 0.375000 1.000000
vt 0.125000 0.750000
vt 0.125000 0.500000
vt 0.875000 0.500000
vt 0.625000 1.000000
vt 0.875000 0.750000
s 0
f 20/19/9 21/20/9 19/21/9
f 22/22/10 25/23/10 21/20/10
f 26/24/11 23/25/11 25/23/11
f 24/26/12 19/27/12 23/25/12
f 25/23/13 19/28/13 21/29/13
f 22/30/14 24/26/14 26/24/14
f 20/19/9 22/22/9 21/20/9
f 22/22/10 26/24/10 25/23/10
f 26/24/11 24/26/11 23/25/11
f 24/26/12 20/31/12 19/27/12
f 25/23/13 23/25/13 19/28/13
f 22/30/14 20/32/14 24/26/14
o Cube.001
v -10.000000 -10.000000 -10.000000
v -10.000000 -10.000000 -9.000000
v -10.000000 9.000000 -10.000000
v -10.000000 9.000000 -9.000000
v 10.000000 -10.000000 -10.000000
v 10.000000 -10.000000 -9.000000
v 10.000000 9.000000 -10.000000
v 10.000000 9.000000 -9.000000
vn -1.0000 -0.0000 -0.0000
vn -0.0000 1.0000 -0.0000
vn 1.0000 -0.0000 -0.0000
vn -0.0000 -1.0000 -0.0000
vn -0.0000 -0.0000 -1.0000
vn -0.0000 -0.0000 1.0000
vt 0.625000 0.000000
vt 0.375000 0.250000
vt 0.375000 0.000000
vt 0.625000 0.250000
vt 0.375000 0.500000
vt 0.625000 0.500000
vt 0.375000 0.750000
vt 0.625000 0.750000
vt 0.375000 1.000000
vt 0.125000 0.750000
vt 0.125000 0.500000
vt 0.875000 0.500000
vt 0.625000 1.000000
vt 0.875000 0.750000
s 0
f 28/33/15 29/34/15 27/35/15
f 30/36/16 33/37/16 29/34/16
f 34/38/17 31/39/17 33/37/17
f 32/40/18 27/41/18 31/39/18
f 33/37/19 27/42/19 29/43/19
f 30/44/20 32/40/20 34/38/20
f 28/33/15 30/36/15 29/34/15
f 30/36/16 34/38/16 33/37/16
f 34/38/17 32/40/17 31/39/17
f 32/40/18 28/45/18 27/41/18
f 33/37/19 31/39/19 27/42/19
f 30/44/20 28/46/20 32/40/20
