# Blender 4.2.2 LTS
# www.blender.org
o Cylinder
v 10.000000 -9.999999 -9.000000
v -10.000000 -10.000001 -9.000000
v 10.000000 -6.020157 -8.807853
v -10.000000 -6.020158 -8.807853
v 10.000000 -2.193257 -8.238795
v -10.000000 -2.193259 -8.238795
v 9.999999 1.333633 -7.314696
v -10.000001 1.333632 -7.314696
v 9.999999 4.424979 -6.071067
v -10.000001 4.424977 -6.071068
v 9.999999 6.961979 -4.555701
v -10.000001 6.961979 -4.555702
v 9.999999 8.847141 -2.826834
v -10.000001 8.847141 -2.826835
v 9.999999 10.008018 -0.950902
v -10.000001 10.008018 -0.950903
vn -0.0000 -0.0482 0.9988
vn -0.0000 -0.1471 0.9891
vn -0.0000 -0.2535 0.9673
vn -0.0000 -0.3732 0.9277
vn -0.0000 -0.5128 0.8585
vn -0.0000 -0.6759 0.7370
vn -0.0000 -0.8503 0.5262
vt 0.468750 0.500000
vt 0.500000 1.000000
vt 0.500000 0.500000
vt 0.437500 0.500000
vt 0.468750 1.000000
vt 0.406250 0.500000
vt 0.437500 1.000000
vt 0.375000 0.500000
vt 0.406250 1.000000
vt 0.343750 0.500000
vt 0.375000 1.000000
vt 0.312500 0.500000
vt 0.343750 1.000000
vt 0.281250 0.500000
vt 0.312500 1.000000
vt 0.281250 1.000000
s 0
f 3/1/1 2/2/1 1/3/1
f 5/4/2 4/5/2 3/1/2
f 7/6/3 6/7/3 5/4/3
f 9/8/4 8/9/4 7/6/4
f 11/10/5 10/11/5 9/8/5
f 13/12/6 12/13/6 11/10/6
f 15/14/7 14/15/7 13/12/7
f 3/1/1 4/5/1 2/2/1
f 5/4/2 6/7/2 4/5/2
f 7/6/3 8/9/3 6/7/3
f 9/8/4 10/11/4 8/9/4
f 11/10/5 12/13/5 10/11/5
f 13/12/6 14/15/6 12/13/6
f 15/14/7 16/16/7 14/15/7
o Cube
v -10.000000 9.000000 -10.000000
v -10.000000 9.000000 -2.600000
v -10.000000 10.000000 -10.000000
v -10.000000 10.000000 -2.600000
v 10.000000 9.000000 -10.000000
v 10.000000 9.000000 -2.600000
v 10.000000 10.000000 -10.000000
v 10.000000 10.000000 -2.600000
vn -1.0000 -0.0000 -0.0000
vn -0.0000 1.0000 -0.0000
vn 1.0000 -0.0000 -0.0000
vn -0.0000 -1.0000 -0.0000
vn -0.0000 -0.0000 -1.0000
vn -0.0000 -0.0000 1.0000
vt 0.625000 0.000000
vt 0.375000 0.250000
vt 0.375000 0.000000
vt 0.625000 0.250000
vt 0.375000 0.500000
vt 0.625000 0.500000
vt 0.375000 0.750000
vt 0.625000 0.750000
vt 0.375000 1.000000
vt 0.125000 0.750000
vt 0.125000 0.500000
vt 0.875000 0.500000
vt 0.625000 1.000000
vt 0.875000 0.750000
s 0
f 18/17/8 19/18/8 17/19/8
f 20/20/9 23/21/9 19/18/9
f 24/22/10 21/23/10 23/21/10
f 22/24/11 17/25/11 21/23/11
f 23/21/12 17/26/12 19/27/12
f 20/28/13 22/24/13 24/22/13
f 18/17/8 20/20/8 19/18/8
f 20/20/9 24/22/9 23/21/9
f 24/22/10 22/24/10 21/23/10
f 22/24/11 18/29/11 17/25/11
f 23/21/12 21/23/12 17/26/12
f 20/28/13 18/30/13 22/24/13
o Cube.001
v -10.000000 -10.000000 -10.000000
v -10.000000 -10.000000 -9.000000
v -10.000000 9.000000 -10.000000
v -10.000000 9.000000 -9.000000
v 10.000000 -10.000000 -10.000000
v 10.000000 -10.000000 -9.000000
v 10.000000 9.000000 -10.000000
v 10.000000 9.000000 -9.000000
vn -1.0000 -0.0000 -0.0000
vn -0.0000 1.0000 -0.0000
vn 1.0000 -0.0000 -0.0000
vn -0.0000 -1.0000 -0.0000
vn -0.0000 -0.0000 -1.0000
vn -0.0000 -0.0000 1.0000
vt 0.625000 0.000000
vt 0.375000 0.250000
vt 0.375000 0.000000
vt 0.625000 0.250000
vt 0.375000 0.500000
vt 0.625000 0.500000
vt 0.375000 0.750000
vt 0.625000 0.750000
vt 0.375000 1.000000
vt 0.125000 0.750000
vt 0.125000 0.500000
vt 0.875000 0.500000
vt 0.625000 1.000000
vt 0.875000 0.750000
s 0
f 26/31/14 27/32/14 25/33/14
f 28/34/15 31/35/15 27/32/15
f 32/36/16 29/37/16 31/35/16
f 30/38/17 25/39/17 29/37/17
f 31/35/18 25/40/18 27/41/18
f 28/42/19 30/38/19 32/36/19
f 26/31/14 28/34/14 27/32/14
f 28/34/15 32/36/15 31/35/15
f 32/36/16 30/38/16 29/37/16
f 30/38/17 26/43/17 25/39/17
f 31/35/18 29/37/18 25/40/18
f 28/42/19 26/44/19 30/38/19
